<?xml version="1.0" encoding="UTF-8"?>
<svg version="1.1" xmlns="http://www.w3.org/2000/svg" width="512" height="512">
<path d="M0 0 C168.96 0 337.92 0 512 0 C512 168.96 512 337.92 512 512 C343.04 512 174.08 512 0 512 C0 343.04 0 174.08 0 0 Z " fill="#FEFEFE" transform="translate(0,0)"/>
<path d="M0 0 C12.54 0 25.08 0 38 0 C42.455 5.445 42.455 5.445 47 11 C48.94977776 13.27962738 50.90434911 15.55138957 52.875 17.8125 C56.93392438 22.5014372 60.83277045 27.28078081 64.625 32.1875 C68.71986932 37.48097474 73.05300982 42.45236098 77.60546875 47.36328125 C80.76166927 50.83870596 83.70322561 54.46589837 86.65234375 58.1171875 C89.22815166 61.28015961 91.85702488 64.39320058 94.5 67.5 C98.72286953 72.4680818 102.87503481 77.488015 106.984375 82.55078125 C108.80338731 84.76109272 110.66865274 86.91643476 112.5625 89.0625 C115 92 115 92 115 94 C115.66 94 116.32 94 117 94 C117 62.98 117 31.96 117 0 C131.025 -0.226875 145.05 -0.45375 159.5 -0.6875 C163.91697266 -0.78764404 168.33394531 -0.88778809 172.88476562 -0.9909668 C178.30761719 -1.04064941 178.30761719 -1.04064941 180.85192871 -1.04988098 C182.61688804 -1.06669765 184.38172619 -1.10523618 186.14587402 -1.16133118 C201.0389589 -1.6109297 201.0389589 -1.6109297 205.89700317 2.37979126 C207.95876882 5.17553629 209.50880224 7.87015054 211 11 C211.85437964 12.36044056 212.72258246 13.71254187 213.6171875 15.046875 C214.3734199 16.27903052 215.1260254 17.51341935 215.875 18.75 C219.60635831 24.81555045 223.46706766 30.77331022 227.44506836 36.6796875 C230.57493132 41.33368472 233.5832263 46.05388048 236.52734375 50.828125 C237.87865555 52.82104108 239.27974247 54.33313697 241 56 C241.2995459 55.53553467 241.5990918 55.07106934 241.90771484 54.5925293 C260.58502645 25.66683895 260.58502645 25.66683895 270.10839844 11.94946289 C272.04952846 9.11958757 272.04952846 9.11958757 273.13378906 6.22045898 C274.45535947 3.22456596 275.2714613 1.85552006 278 0 C284.80270434 -1.49868673 291.97053176 -0.83925894 298.875 -0.5625 C300.82282484 -0.51733352 302.7707495 -0.47627269 304.71875 -0.43945312 C309.48163458 -0.34048618 314.23972529 -0.18532948 319 0 C314.82482839 6.67949996 310.53393674 13.21127409 305.875 19.5625 C304.73822857 21.12496167 303.60151139 22.68746282 302.46484375 24.25 C301.60415283 25.42949219 301.60415283 25.42949219 300.72607422 26.6328125 C297.95326812 30.43551801 295.19443052 34.24827583 292.4375 38.0625 C291.63650879 39.16948242 291.63650879 39.16948242 290.81933594 40.29882812 C286.5344308 46.2317737 282.31016137 52.20622111 278.12817383 58.2121582 C274.95793726 62.73945588 271.62720391 67.03751896 267.9140625 71.140625 C266.71176026 73.04182336 266.71176026 73.04182336 267.76123047 75.35668945 C268.94807373 77.88919872 270.22806843 79.92294814 271.90625 82.15234375 C272.48012451 82.9215918 273.05399902 83.69083984 273.64526367 84.48339844 C274.25732666 85.29325195 274.86938965 86.10310547 275.5 86.9375 C276.77816763 88.64912465 278.05550664 90.36136839 279.33203125 92.07421875 C279.95932129 92.91388184 280.58661133 93.75354492 281.23291016 94.61865234 C283.59336953 97.79963061 285.89818902 101.01761695 288.1875 104.25 C291.58183923 109.03249064 295.02357522 113.77684064 298.5 118.5 C302.14806079 123.46267729 305.7811086 128.43541212 309.375 133.4375 C310.14585937 134.50871094 310.91671875 135.57992187 311.7109375 136.68359375 C313.44158264 139.14134452 315.05651118 141.65422635 316.64306641 144.20727539 C317.08647369 144.91985001 317.52988098 145.63242462 317.98672485 146.36659241 C318.32110565 146.90561691 318.65548645 147.44464142 319 148 C308.36938892 148.82852484 297.75075214 149.35071614 287.0859375 149.09765625 C285.74580597 149.10425766 285.74580597 149.10425766 284.37860107 149.11099243 C279.2858991 148.91612629 276.46425219 148.04053855 272.69140625 144.52148438 C270.16525646 141.72597054 268.36235479 139.2546506 267.2265625 135.62109375 C264.71944721 128.81379969 260.75247625 123.13593093 256.75 117.125 C255.44898988 115.0885734 254.15200819 113.04956666 252.859375 111.0078125 C248.98997568 104.94814948 245.00997247 98.96725248 241 93 C237.69711973 96.20178925 235.3195262 99.40216012 232.875 103.3125 C232.07532826 104.57882632 231.27450904 105.84442862 230.47265625 107.109375 C230.06289551 107.75712891 229.65313477 108.40488281 229.23095703 109.07226562 C227.29960576 112.09684905 225.30953328 115.08101944 223.3125 118.0625 C222.91345459 118.65861084 222.51440918 119.25472168 222.10327148 119.86889648 C221.23405817 121.167107 220.36466406 122.46519647 219.49511719 123.76318359 C217.75510528 126.36638233 216.0218562 128.97402241 214.2890625 131.58203125 C213.65186279 132.54036865 213.01466309 133.49870605 212.3581543 134.48608398 C211.09061342 136.39263174 209.82383292 138.29968526 208.55786133 140.20727539 C207.98060303 141.07473389 207.40334473 141.94219238 206.80859375 142.8359375 C206.03213501 144.00455322 206.03213501 144.00455322 205.23999023 145.19677734 C204 147 204 147 203 148 C199.97022196 148.08871273 196.96332978 148.1151935 193.93359375 148.09765625 C193.02497086 148.0962413 192.11634796 148.09482635 191.18019104 148.09336853 C188.26592779 148.08775193 185.35174019 148.07519665 182.4375 148.0625 C180.46679798 148.05748714 178.49609476 148.05292386 176.52539062 148.04882812 C171.68356441 148.03777711 166.84179505 148.02050138 162 148 C163.59483936 143.77061383 165.55487561 140.74231699 168.375 137.1875 C169.27835152 136.03724908 170.18064799 134.88616898 171.08203125 133.734375 C171.55721191 133.12916016 172.03239258 132.52394531 172.52197266 131.90039062 C175.07925007 128.61234184 177.56936405 125.27428895 180.0625 121.9375 C180.57216309 121.25647217 181.08182617 120.57544434 181.60693359 119.8737793 C182.60820343 118.53570117 183.60918799 117.19740952 184.60986328 115.85888672 C186.5704663 113.23717415 188.53519084 110.61856122 190.5 108 C191.56541016 106.57880859 191.56541016 106.57880859 192.65234375 105.12890625 C194.41375892 102.78132963 196.17692426 100.43511313 197.94140625 98.08984375 C203.69354083 90.43961323 209.4053942 82.76662923 215 75 C212.27826995 70.17205483 208.9896667 65.81290916 205.6875 61.375 C204.43615708 59.68492607 203.1848563 57.99482094 201.93359375 56.3046875 C201.28890137 55.43553711 200.64420898 54.56638672 199.97998047 53.67089844 C196.72936419 49.28597339 193.48946238 44.89316788 190.25 40.5 C189.65405029 39.69353027 189.05810059 38.88706055 188.4440918 38.05615234 C187.61325073 36.93007568 187.61325073 36.93007568 186.765625 35.78125 C186.27868164 35.12189453 185.79173828 34.46253906 185.29003906 33.78320312 C184.15577103 32.21532014 183.07343031 30.61014546 182 29 C163.685 28.505 163.685 28.505 145 28 C145 67.6 145 107.2 145 148 C117 148 117 148 111.5 143.375 C110.3033475 141.26674031 109.13830927 139.1403243 108 137 C106.21346055 134.69299457 104.2626673 132.54409211 102.3125 130.375 C97.80705395 125.17596472 93.41892847 119.88662199 89.0625 114.5625 C83.98938102 108.36497734 78.81169708 102.27439624 73.54321289 96.24243164 C69.72942006 91.86787282 66.04258852 87.40538249 62.390625 82.89453125 C58.86977541 78.6315418 55.23870021 74.46636643 51.60351562 70.30078125 C51.07951172 69.70007813 50.55550781 69.099375 50.015625 68.48046875 C49.55446289 67.95348389 49.09330078 67.42649902 48.61816406 66.88354492 C46.38230785 64.28100559 44.1965196 61.63582352 42 59 C41.67 88.37 41.34 117.74 41 148 C27.47 148 13.94 148 0 148 C0 99.16 0 50.32 0 0 Z " fill="#020202" transform="translate(96,182)"/>
<path d="M0 0 C5.69215668 -0.27322046 11.38045598 -0.47207961 17.07763672 -0.60424805 C19.01223246 -0.65936059 20.94637417 -0.73428109 22.87939453 -0.82983398 C38.8941249 -1.6012803 38.8941249 -1.6012803 43.92626953 2.22509766 C46.00783882 5.05862958 47.52450522 7.81441854 49 11 C49.85252114 12.36160596 50.72264568 13.71249949 51.6171875 15.046875 C52.3734199 16.27903052 53.1260254 17.51341935 53.875 18.75 C57.60635831 24.81555045 61.46706766 30.77331022 65.44506836 36.6796875 C68.57493132 41.33368472 71.5832263 46.05388048 74.52734375 50.828125 C75.87865555 52.82104108 77.27974247 54.33313697 79 56 C79.2995459 55.53553467 79.5990918 55.07106934 79.90771484 54.5925293 C98.58502645 25.66683895 98.58502645 25.66683895 108.10839844 11.94946289 C110.04952846 9.11958757 110.04952846 9.11958757 111.13378906 6.22045898 C112.45535947 3.22456596 113.2714613 1.85552006 116 0 C122.80270434 -1.49868673 129.97053176 -0.83925894 136.875 -0.5625 C138.82282484 -0.51733352 140.7707495 -0.47627269 142.71875 -0.43945312 C147.48163458 -0.34048618 152.23972529 -0.18532948 157 0 C152.82482839 6.67949996 148.53393674 13.21127409 143.875 19.5625 C142.73822857 21.12496167 141.60151139 22.68746282 140.46484375 24.25 C139.60415283 25.42949219 139.60415283 25.42949219 138.72607422 26.6328125 C135.95326812 30.43551801 133.19443052 34.24827583 130.4375 38.0625 C129.63650879 39.16948242 129.63650879 39.16948242 128.81933594 40.29882812 C124.5344308 46.2317737 120.31016137 52.20622111 116.12817383 58.2121582 C112.95793726 62.73945588 109.62720391 67.03751896 105.9140625 71.140625 C104.71176026 73.04182336 104.71176026 73.04182336 105.76123047 75.35668945 C106.94807373 77.88919872 108.22806843 79.92294814 109.90625 82.15234375 C110.48012451 82.9215918 111.05399902 83.69083984 111.64526367 84.48339844 C112.25732666 85.29325195 112.86938965 86.10310547 113.5 86.9375 C114.77816763 88.64912465 116.05550664 90.36136839 117.33203125 92.07421875 C118.27296631 93.33371338 118.27296631 93.33371338 119.23291016 94.61865234 C121.59336953 97.79963061 123.89818902 101.01761695 126.1875 104.25 C129.58183923 109.03249064 133.02357522 113.77684064 136.5 118.5 C140.14806079 123.46267729 143.7811086 128.43541212 147.375 133.4375 C148.14585937 134.50871094 148.91671875 135.57992187 149.7109375 136.68359375 C151.44158264 139.14134452 153.05651118 141.65422635 154.64306641 144.20727539 C155.08647369 144.91985001 155.52988098 145.63242462 155.98672485 146.36659241 C156.32110565 146.90561691 156.65548645 147.44464142 157 148 C146.36938892 148.82852484 135.75075214 149.35071614 125.0859375 149.09765625 C124.19251648 149.10205719 123.29909546 149.10645813 122.37860107 149.11099243 C117.2858991 148.91612629 114.46425219 148.04053855 110.69140625 144.52148438 C108.16525646 141.72597054 106.36235479 139.2546506 105.2265625 135.62109375 C102.71944721 128.81379969 98.75247625 123.13593093 94.75 117.125 C93.44898988 115.0885734 92.15200819 113.04956666 90.859375 111.0078125 C86.98997568 104.94814948 83.00997247 98.96725248 79 93 C75.69711973 96.20178925 73.3195262 99.40216012 70.875 103.3125 C70.07532826 104.57882632 69.27450904 105.84442862 68.47265625 107.109375 C68.06289551 107.75712891 67.65313477 108.40488281 67.23095703 109.07226562 C65.29960576 112.09684905 63.30953328 115.08101944 61.3125 118.0625 C60.91345459 118.65861084 60.51440918 119.25472168 60.10327148 119.86889648 C59.23405817 121.167107 58.36466406 122.46519647 57.49511719 123.76318359 C55.75510528 126.36638233 54.0218562 128.97402241 52.2890625 131.58203125 C51.33326294 133.01953735 51.33326294 133.01953735 50.3581543 134.48608398 C49.09061342 136.39263174 47.82383292 138.29968526 46.55786133 140.20727539 C45.98060303 141.07473389 45.40334473 141.94219238 44.80859375 142.8359375 C44.03213501 144.00455322 44.03213501 144.00455322 43.23999023 145.19677734 C42 147 42 147 41 148 C37.97022196 148.08871273 34.96332978 148.1151935 31.93359375 148.09765625 C31.02497086 148.0962413 30.11634796 148.09482635 29.18019104 148.09336853 C26.26592779 148.08775193 23.35174019 148.07519665 20.4375 148.0625 C18.46679798 148.05748714 16.49609476 148.05292386 14.52539062 148.04882812 C9.68356441 148.03777711 4.84179505 148.02050138 0 148 C1.59483936 143.77061383 3.55487561 140.74231699 6.375 137.1875 C7.27835152 136.03724908 8.18064799 134.88616898 9.08203125 133.734375 C9.55721191 133.12916016 10.03239258 132.52394531 10.52197266 131.90039062 C13.07925007 128.61234184 15.56936405 125.27428895 18.0625 121.9375 C18.82699463 120.91595825 18.82699463 120.91595825 19.60693359 119.8737793 C20.60820343 118.53570117 21.60918799 117.19740952 22.60986328 115.85888672 C24.5704663 113.23717415 26.53519084 110.61856122 28.5 108 C29.56541016 106.57880859 29.56541016 106.57880859 30.65234375 105.12890625 C32.41375892 102.78132963 34.17692426 100.43511313 35.94140625 98.08984375 C41.69354083 90.43961323 47.4053942 82.76662923 53 75 C50.27826433 70.17204486 46.98961501 65.81295211 43.6875 61.375 C42.42575768 59.67059036 41.16403963 57.96616276 39.90234375 56.26171875 C39.2563623 55.3907959 38.61038086 54.51987305 37.94482422 53.62255859 C34.87412829 49.48178334 31.81052381 45.3357978 28.75 41.1875 C28.16452393 40.3941626 27.57904785 39.6008252 26.97583008 38.78344727 C23.16738435 33.61273536 19.41469532 28.40623798 15.70849609 23.16186523 C13.42926341 19.951938 11.09792035 16.78908479 8.71875 13.65234375 C8.1633252 12.91975342 7.60790039 12.18716309 7.03564453 11.43237305 C5.94728591 10.0020823 4.85465612 8.57502933 3.75732422 7.15161133 C0 2.21788237 0 2.21788237 0 0 Z " fill="#014FFA" transform="translate(258,182)"/>
<path d="M0 0 C5.15422293 4.67101453 9.11365178 10.25244779 13 16 C13 16.33 13 16.66 13 17 C7.12867095 17.22300529 1.25981949 17.3860246 -4.61474609 17.49438477 C-6.61127669 17.53956174 -8.60751086 17.60092086 -10.60302734 17.67895508 C-27.22094016 18.31237328 -27.22094016 18.31237328 -31.67480469 15.02685547 C-33.68752389 12.07403903 -35 9.61164842 -35 6 C-34.34 6 -33.68 6 -33 6 C-33 6.66 -33 7.32 -33 8 C-31.35 8.33 -29.7 8.66 -28 9 C-27.67 10.98 -27.34 12.96 -27 15 C-16.11 14.67 -5.22 14.34 6 14 C5.34 12.35 4.68 10.7 4 9 C4 8.01 4 7.02 4 6 C2.68 5.34 1.36 4.68 0 4 C0 2.68 0 1.36 0 0 Z " fill="#0D4CF2" transform="translate(402,313)"/>
<path d="M0 0 C2.03564907 1.5078882 2.86051575 2.62804199 3.75 5 C4 7 4 7 3 10 C3.66 10 4.32 10 5 10 C5 10.99 5 11.98 5 13 C5.66 13 6.32 13 7 13 C7.1546875 13.9590625 7.1546875 13.9590625 7.3125 14.9375 C7.539375 15.618125 7.76625 16.29875 8 17 C8.99 17.33 9.98 17.66 11 18 C10.34 18.99 9.68 19.98 9 21 C5.04 15.06 1.08 9.12 -3 3 C-6.42828916 6.42828916 -8.59102738 9.25907885 -11.125 13.3125 C-11.91039945 14.55535727 -12.69689942 15.79751963 -13.484375 17.0390625 C-13.89236328 17.68391602 -14.30035156 18.32876953 -14.72070312 18.99316406 C-16.90232252 22.41547541 -19.13334845 25.80430501 -21.375 29.1875 C-21.79152832 29.82276611 -22.20805664 30.45803223 -22.63720703 31.11254883 C-24.55233918 33.99694847 -26.39958318 36.69317863 -29 39 C-25.98165138 28.98165138 -25.98165138 28.98165138 -23 26 C-22.34 26 -21.68 26 -21 26 C-21 24.35 -21 22.7 -21 21 C-20.01 21 -19.02 21 -18 21 C-17.87496094 20.42507813 -17.74992187 19.85015625 -17.62109375 19.2578125 C-16.98691142 16.95242014 -16.1370025 15.0077861 -15.0625 12.875 C-14.72347656 12.19179688 -14.38445312 11.50859375 -14.03515625 10.8046875 C-13 9 -13 9 -11 7 C-10.67 6.01 -10.34 5.02 -10 4 C-10 4.66 -10 5.32 -10 6 C-9.34 6 -8.68 6 -8 6 C-8 5.01 -8 4.02 -8 3 C-7.34 3 -6.68 3 -6 3 C-6 2.34 -6 1.68 -6 1 C-4 0 -4 0 0 0 Z " fill="#124AD0" transform="translate(340,272)"/>
<path d="M0 0 C0 3.56425666 -0.67140513 4.13971866 -2.875 6.8125 C-5.43982869 10.08507623 -6.97860831 12.91443323 -8 17 C-8.99 17 -9.98 17 -11 17 C-11.103125 17.639375 -11.20625 18.27875 -11.3125 18.9375 C-11.539375 19.618125 -11.76625 20.29875 -12 21 C-12.99 21.33 -13.98 21.66 -15 22 C-16.12085312 24.3430809 -16.12085312 24.3430809 -17 27 C-18.15145097 29.922914 -18.95754158 30.96709473 -21.5 32.9375 C-24.27062121 35.2232625 -24.74169685 36.72841182 -26 40 C-27.30518475 41.03647024 -28.63461347 42.04422943 -30 43 C-30 43.66 -30 44.32 -30 45 C-11.685 45.495 -11.685 45.495 7 46 C7 46.33 7 46.66 7 47 C-6.53 47 -20.06 47 -34 47 C-32.19349864 42.48374659 -30.59007645 39.92503164 -27.625 36.1875 C-26.72164848 35.03724908 -25.81935201 33.88616898 -24.91796875 32.734375 C-24.44278809 32.12916016 -23.96760742 31.52394531 -23.47802734 30.90039062 C-20.920749 27.61234064 -18.43068976 24.2742502 -15.9375 20.9375 C-15.43581299 20.26734863 -14.93412598 19.59719727 -14.41723633 18.90673828 C-12.4796445 16.31803755 -10.54394185 13.72792779 -8.60839844 11.13769531 C-7.7419175 9.97837298 -6.87515354 8.8192621 -6.00805664 7.66040039 C-4.88611662 6.160891 -3.76528489 4.66055256 -2.64453125 3.16015625 C-1 1 -1 1 0 0 Z " fill="#1041BA" transform="translate(292,283)"/>
<path d="M0 0 C0.99 0 1.98 0 3 0 C1.30266765 5.28936127 -2.1333979 9.07378855 -5.71875 13.18359375 C-7.2823232 15.01482618 -7.2823232 15.01482618 -9 18 C-7.95589591 21.71429041 -6.09174714 24.48919533 -3.77734375 27.5390625 C-3.15666016 28.36664063 -2.53597656 29.19421875 -1.89648438 30.046875 C-0.92678711 31.32304687 -0.92678711 31.32304687 0.0625 32.625 C1.34861645 34.32282668 2.63133137 36.02323696 3.91015625 37.7265625 C4.47871338 38.47502441 5.04727051 39.22348633 5.63305664 39.99462891 C7 42 7 42 8 45 C6.515 44.505 6.515 44.505 5 44 C5 43.34 5 42.68 5 42 C3.02 41.67 1.04 41.34 -1 41 C-0.505 38.03 -0.505 38.03 0 35 C-0.99 34.67 -1.98 34.34 -3 34 C-5.1875 32.1875 -5.1875 32.1875 -7 30 C-7 28.68 -7 27.36 -7 26 C-7.66 26 -8.32 26 -9 26 C-9 25.34 -9 24.68 -9 24 C-9.66 24 -10.32 24 -11 24 C-11.1953125 21.94921875 -11.390625 19.8984375 -11.5859375 17.84765625 C-11.79089844 16.93306641 -11.79089844 16.93306641 -12 16 C-12.66 15.67 -13.32 15.34 -14 15 C-13.67 14.01 -13.34 13.02 -13 12 C-11.02 12.495 -11.02 12.495 -9 13 C-8.5875 11.906875 -8.175 10.81375 -7.75 9.6875 C-6.36926054 6.4352369 -5.00276082 4.93726505 -2 3 C-1.34 2.01 -0.68 1.02 0 0 Z " fill="#114AD2" transform="translate(372,237)"/>
<path d="M0 0 C1.25541557 3.76624671 0.37061958 5.37188934 -1 9 C-1.99 9 -2.98 9 -4 9 C-4.33 9.99 -4.66 10.98 -5 12 C-4.34 12.33 -3.68 12.66 -3 13 C-3.49113281 13.39832031 -3.98226563 13.79664063 -4.48828125 14.20703125 C-6.43183425 16.5121755 -6.316536 17.7196719 -6.1875 20.6875 C-6.16042969 21.49574219 -6.13335937 22.30398437 -6.10546875 23.13671875 C-6.07066406 23.75160156 -6.03585937 24.36648437 -6 25 C-9.875 24.125 -9.875 24.125 -11 23 C-11.33 23.66 -11.66 24.32 -12 25 C-12.99 25 -13.98 25 -15 25 C-15.0825 25.598125 -15.165 26.19625 -15.25 26.8125 C-16.20455872 29.5966296 -17.57132271 30.43311142 -20 32 C-20.66 31.67 -21.32 31.34 -22 31 C-14.70145248 20.64158032 -7.37903207 10.30125937 0 0 Z " fill="#F8FCF5" transform="translate(414,183)"/>
<path d="M0 0 C13.86 0.33 27.72 0.66 42 1 C42.495 3.475 42.495 3.475 43 6 C41.68 6.33 40.36 6.66 39 7 C40 4 40 4 41 3 C40.4332959 3.0736377 39.8665918 3.14727539 39.28271484 3.22314453 C30.87597239 4.20121894 22.55361228 4.00081363 14.10546875 3.78515625 C12.43291016 3.76388672 12.43291016 3.76388672 10.7265625 3.7421875 C9.72189941 3.7201123 8.71723633 3.69803711 7.68212891 3.67529297 C4.58397862 4.05036487 3.3504999 5.0262036 1 7 C0.34 7 -0.32 7 -1 7 C-0.67 4.69 -0.34 2.38 0 0 Z " fill="#D7E6F6" transform="translate(257,329)"/>
<path d="M0 0 C0.66 0.33 1.32 0.66 2 1 C2 1.66 2 2.32 2 3 C1.01 3 0.02 3 -1 3 C-0.938125 3.78375 -0.87625 4.5675 -0.8125 5.375 C-0.9053125 6.674375 -0.9053125 6.674375 -1 8 C-1.99 8.66 -2.98 9.32 -4 10 C-4.33 10.99 -4.66 11.98 -5 13 C-5.66 13 -6.32 13 -7 13 C-7.99 16.3 -8.98 19.6 -10 23 C-10.99 23 -11.98 23 -13 23 C-13.37125 24.051875 -13.37125 24.051875 -13.75 25.125 C-15.53831727 29.23812973 -17.34342 32.98764555 -21.25 35.375 C-21.8275 35.58125 -22.405 35.7875 -23 36 C-21.62846149 32.21808441 -19.89354836 29.12917513 -17.625 25.8125 C-16.57505859 24.265625 -16.57505859 24.265625 -15.50390625 22.6875 C-15.11219238 22.11257813 -14.72047852 21.53765625 -14.31689453 20.9453125 C-12.81174597 18.72191173 -11.324767 16.48695784 -9.83984375 14.25 C-9.29827637 13.43426514 -8.75670898 12.61853027 -8.19873047 11.77807617 C-7.11539798 10.14564185 -6.0323856 8.51299504 -4.94970703 6.88012695 C-4.45196777 6.13206787 -3.95422852 5.38400879 -3.44140625 4.61328125 C-2.77153687 3.60454956 -2.77153687 3.60454956 -2.08813477 2.57543945 C-1 1 -1 1 0 0 Z " fill="#DEF2FB" transform="translate(336,274)"/>
<path d="M0 0 C-0.33 2.31 -0.66 4.62 -1 7 C-14.86 6.67 -28.72 6.34 -43 6 C-40.18486564 3.18486564 -37.49379445 3.70294053 -33.7265625 3.69140625 C-32.24739195 3.66624283 -30.76822538 3.64084486 -29.2890625 3.61523438 C-26.95639097 3.58650568 -24.6237886 3.56249024 -22.29101562 3.54370117 C-20.03999645 3.5220201 -17.78979731 3.48257612 -15.5390625 3.44140625 C-14.4966893 3.44123253 -14.4966893 3.44123253 -13.43325806 3.4410553 C-7.8934877 3.32805535 -5.26992689 0 0 0 Z " fill="#C1DAF3" transform="translate(417,176)"/>
<path d="M0 0 C1 3 1 3 1 7 C0.01 7 -0.98 7 -2 7 C-2.495 5.02 -2.495 5.02 -3 3 C-4.25031006 3.25124634 -4.25031006 3.25124634 -5.52587891 3.50756836 C-9.29782444 4.04221447 -12.77949486 4.01593818 -16.5859375 3.87890625 C-17.28772125 3.85529526 -17.989505 3.83168427 -18.71255493 3.80735779 C-20.93360886 3.73135196 -23.154257 3.64706073 -25.375 3.5625 C-26.88930367 3.50921595 -28.4036266 3.45647609 -29.91796875 3.40429688 C-33.61222278 3.27582375 -37.30615988 3.13992299 -41 3 C-41.33 2.34 -41.66 1.68 -42 1 C-28.14 0.67 -14.28 0.34 0 0 Z " fill="#D2E4F7" transform="translate(415,329)"/>
<path d="M0 0 C4.06659926 3.851788 7.39522854 7.9759263 10.6875 12.5 C11.41549805 13.47646484 11.41549805 13.47646484 12.15820312 14.47265625 C14.64236605 17.86482355 16.67211618 20.96199071 18 25 C17.01 24.34 16.02 23.68 15 23 C15 22.34 15 21.68 15 21 C14.38125 20.773125 13.7625 20.54625 13.125 20.3125 C11 19 11 19 10 16.4375 C9.26093715 13.88708642 9.26093715 13.88708642 7.1875 13.0625 C4.39601183 12.9827432 2.50301771 13.81801941 0 15 C0.185625 13.824375 0.37125 12.64875 0.5625 11.4375 C1.08230996 7.38731406 0.7502354 4.00125547 0 0 Z " fill="#044CF4" transform="translate(384,288)"/>
<path d="M0 0 C0.66 0.33 1.32 0.66 2 1 C-0.24828609 4.06376157 -2.49893317 7.12578112 -4.75 10.1875 C-5.70132812 11.48397461 -5.70132812 11.48397461 -6.671875 12.80664062 C-9.70813722 16.93405958 -12.75023306 21.03626911 -16 25 C-16.66 24.67 -17.32 24.34 -18 24 C-17.34 22.35 -16.68 20.7 -16 19 C-15.34 19 -14.68 19 -14 19 C-13.67 18.01 -13.34 17.02 -13 16 C-12.34 16 -11.68 16 -11 16 C-11 14.02 -11 12.04 -11 10 C-10.01 9.67 -9.02 9.34 -8 9 C-6.82917122 6.07085835 -6.82917122 6.07085835 -6 3 C-5.67 2.34 -5.34 1.68 -5 1 C-4.34 1 -3.68 1 -3 1 C-3 1.99 -3 2.98 -3 4 C-2.67 3.01 -2.34 2.02 -2 1 C-1.34 0.67 -0.68 0.34 0 0 Z " fill="#D1E9FB" transform="translate(286,288)"/>
<path d="M0 0 C3.19267711 0.31002146 4.61339633 0.57146535 6.80078125 2.99609375 C7.29964844 3.80175781 7.79851562 4.60742188 8.3125 5.4375 C8.82425781 6.24058594 9.33601563 7.04367187 9.86328125 7.87109375 C11 10 11 10 11 12 C10.484375 11.649375 9.96875 11.29875 9.4375 10.9375 C6.05300677 9.63577184 3.51358939 10.3493353 0 11 C-0.66 11 -1.32 11 -2 11 C-2.24042276 6.91281305 -1.42258812 3.82320557 0 0 Z " fill="#EFF7FA" transform="translate(335,277)"/>
<path d="M0 0 C1.41791408 0.45445964 2.83428046 0.91374944 4.25 1.375 C5.43335938 1.75785156 5.43335938 1.75785156 6.640625 2.1484375 C8.86627958 2.95173667 10.90931672 3.89711662 13 5 C12.67 7.31 12.34 9.62 12 12 C12.66 12.33 13.32 12.66 14 13 C14.125 18.75 14.125 18.75 13 21 C12.34 21 11.68 21 11 21 C11.21712646 20.41951904 11.43425293 19.83903809 11.65795898 19.2409668 C12.2278203 16.98160751 12.2278203 16.98160751 11.01196289 15.09301758 C10.2500061 14.12851685 10.2500061 14.12851685 9.47265625 13.14453125 C8.92802734 12.44005859 8.38339844 11.73558594 7.82226562 11.00976562 C7.24154297 10.28466797 6.66082031 9.55957031 6.0625 8.8125 C4.92670957 7.36198775 3.79250375 5.91023282 2.66015625 4.45703125 C1.89650757 3.4976062 1.89650757 3.4976062 1.11743164 2.51879883 C0 1 0 1 0 0 Z " fill="#0450ED" transform="translate(299,239)"/>
<path d="M0 0 C5.69215668 -0.27322046 11.38045598 -0.47207961 17.07763672 -0.60424805 C19.01223246 -0.65936059 20.94637417 -0.73428109 22.87939453 -0.82983398 C39.00721741 -1.60672808 39.00721741 -1.60672808 44.09765625 2.49755859 C46.10891685 5.26304192 47.66550135 7.85793839 49 11 C48.67 11.66 48.34 12.32 48 13 C46.5 11.625 46.5 11.625 45 10 C45 9.34 45 8.68 45 8 C44.360625 7.773125 43.72125 7.54625 43.0625 7.3125 C42.381875 6.879375 41.70125 6.44625 41 6 C40.505 3.525 40.505 3.525 40 1 C27.79 1.33 15.58 1.66 3 2 C3.33 3.32 3.66 4.64 4 6 C2.62437146 4.71034824 1.29233607 3.37310707 0 2 C0 1.34 0 0.68 0 0 Z " fill="#0B3BB2" transform="translate(258,182)"/>
<path d="M0 0 C5.15422293 4.67101453 9.11365178 10.25244779 13 16 C13 16.33 13 16.66 13 17 C-0.86 17 -14.72 17 -29 17 C-28.67 16.34 -28.34 15.68 -28 15 C-9.19 15.495 -9.19 15.495 10 16 C6.86824314 10.22739701 6.86824314 10.22739701 4 9 C4 8.01 4 7.02 4 6 C2.68 5.34 1.36 4.68 0 4 C0 2.68 0 1.36 0 0 Z " fill="#0833AE" transform="translate(402,313)"/>
<path d="M0 0 C3.30044826 3.077445 5.75816419 6.36878825 8.25 10.125 C8.95640625 11.17945313 9.6628125 12.23390625 10.390625 13.3203125 C12 16 12 16 12 18 C7.60633322 17.49786665 5.12817658 16.12817658 2 13 C1.25 10.75 1.25 10.75 1 8 C0.81524759 6.56214429 0.62760032 5.12465844 0.4375 3.6875 C0.293125 2.470625 0.14875 1.25375 0 0 Z " fill="#F6FBFC" transform="translate(361,312)"/>
<path d="M0 0 C1.32 0 2.64 0 4 0 C1.65426078 6.49589322 1.65426078 6.49589322 -1 9 C-3.99488276 9.35519237 -6.61642991 9.46627491 -9.60546875 9.390625 C-10.44467361 9.38496521 -11.28387848 9.37930542 -12.14851379 9.37347412 C-14.82875633 9.35108406 -17.50766163 9.30088453 -20.1875 9.25 C-22.00453798 9.22993832 -23.82159692 9.21168697 -25.63867188 9.1953125 C-30.09296312 9.15121086 -34.54625485 9.08216659 -39 9 C-39 5 -39 5 -37.5 3.25 C-37.005 2.8375 -36.51 2.425 -36 2 C-36 5 -36 5 -37 8 C-32.37267675 7.98057347 -27.74725378 7.92884343 -23.12060547 7.84741211 C-21.54746867 7.82424439 -19.97417704 7.80983921 -18.40087891 7.80444336 C-16.13606428 7.79514374 -13.87368033 7.75414022 -11.609375 7.70703125 C-10.55759064 7.71293022 -10.55759064 7.71293022 -9.48455811 7.71894836 C-5.72096596 7.60700024 -4.25902924 7.25312827 -1.52441406 4.58081055 C0.16952613 2.21256184 0.16952613 2.21256184 0 0 Z " fill="#0B49EE" transform="translate(301,320)"/>
<path d="M0 0 C0.33 0 0.66 0 1 0 C1.1875 2.3125 1.1875 2.3125 1 5 C-0.5 6.625 -0.5 6.625 -2 8 C-2 8.99 -2 9.98 -2 11 C-2.99 11.33 -3.98 11.66 -5 12 C-5.474375 12.825 -5.94875 13.65 -6.4375 14.5 C-8 17 -8 17 -10.1875 17.8125 C-10.785625 17.874375 -11.38375 17.93625 -12 18 C-12.103125 18.639375 -12.20625 19.27875 -12.3125 19.9375 C-12.539375 20.618125 -12.76625 21.29875 -13 22 C-13.99 22.33 -14.98 22.66 -16 23 C-14.45596808 18.18517856 -11.70286585 14.79847131 -8.5625 10.9375 C-7.58433643 9.71768761 -6.60646391 8.49764177 -5.62890625 7.27734375 C-5.1714502 6.71128418 -4.71399414 6.14522461 -4.24267578 5.56201172 C-3.20230262 4.25428923 -2.20324833 2.91383744 -1.21484375 1.56640625 C-0.61349609 0.79103516 -0.61349609 0.79103516 0 0 Z " fill="#0F4AD1" transform="translate(309,260)"/>
<path d="M0 0 C3.4784516 3.19385102 5.99770767 6.78011401 8.5 10.75 C8.89437256 11.36891113 9.28874512 11.98782227 9.69506836 12.62548828 C12.42665727 16.96132569 14.85643578 21.34007779 17 26 C16.34 26.33 15.68 26.66 15 27 C14.67 25.35 14.34 23.7 14 22 C13.01 21.67 12.02 21.34 11 21 C9.3125 19.4375 9.3125 19.4375 8 18 C8 18.66 8 19.32 8 20 C7.34 20 6.68 20 6 20 C6.2475 19.154375 6.495 18.30875 6.75 17.4375 C7.07274624 12.99973916 5.38397783 10.54285594 3 7 C0 2.17857143 0 2.17857143 0 0 Z " fill="#1649BD" transform="translate(314,206)"/>
<path d="M0 0 C0.33 0.66 0.66 1.32 1 2 C0.109375 4.34765625 0.109375 4.34765625 -1.25 7.0625 C-1.68828125 7.96097656 -2.1265625 8.85945312 -2.578125 9.78515625 C-4 12 -4 12 -7 13 C-7.12375 14.0209375 -7.12375 14.0209375 -7.25 15.0625 C-8.22332528 18.8746907 -9.95807455 21.64070329 -12 25 C-13.32 24.67 -14.64 24.34 -16 24 C-10.66666667 16 -5.33333333 8 0 0 Z " fill="#0F48CA" transform="translate(360,203)"/>
<path d="M0 0 C0.33 0.66 0.66 1.32 1 2 C1.66 2.33 2.32 2.66 3 3 C-0.63 7.95 -4.26 12.9 -8 18 C-9 14 -9 14 -7.6875 11.25 C-7.130625 10.5075 -6.57375 9.765 -6 9 C-5.34 9 -4.68 9 -4 9 C-4.33 7.35 -4.66 5.7 -5 4 C-3.35 2.68 -1.7 1.36 0 0 Z " fill="#E1F3FA" transform="translate(303,262)"/>
<path d="M0 0 C0.33 0.99 0.66 1.98 1 3 C1.66 3.33 2.32 3.66 3 4 C-0.75 7 -0.75 7 -3 7 C-2.67 7.99 -2.34 8.98 -2 10 C-3.62339805 11.70884005 -5.29319053 13.37446717 -7 15 C-7.66 15 -8.32 15 -9 15 C-9.66 16.98 -10.32 18.96 -11 21 C-11.99 21 -12.98 21 -14 21 C-12.69639323 17.3396263 -11.13631082 14.63307361 -8.6875 11.625 C-5.65189108 7.83366417 -2.79062592 3.97452783 0 0 Z " fill="#E1F2FC" transform="translate(387,221)"/>
<path d="M0 0 C13.53 0 27.06 0 41 0 C39.02 2.97 37.04 5.94 35 9 C35 5.42424104 36.08840607 3.94704065 38 1 C32.94596462 1.09364965 27.89240179 1.19976907 22.83886719 1.31738281 C21.12018989 1.35563327 19.40143362 1.39049303 17.68261719 1.421875 C15.2099996 1.46761128 12.73792387 1.52559084 10.265625 1.5859375 C9.49881409 1.59748871 8.73200317 1.60903992 7.94195557 1.62094116 C4.16811648 1.72502269 1.20636084 1.89444046 -2 4 C-1.34 2.68 -0.68 1.36 0 0 Z " fill="#0D3AB2" transform="translate(374,182)"/>
<path d="M0 0 C0.66 0 1.32 0 2 0 C3.23339844 1.43359375 3.23339844 1.43359375 4.609375 3.4375 C5.11726563 4.16839844 5.62515625 4.89929688 6.1484375 5.65234375 C6.67695313 6.42707031 7.20546875 7.20179688 7.75 8 C8.7852415 9.50084007 9.82169766 11.00084303 10.859375 12.5 C11.37177734 13.24121094 11.88417969 13.98242188 12.41210938 14.74609375 C14.86221064 18.22385127 17.42125985 21.6169879 20 25 C19.67 25.66 19.34 26.32 19 27 C15.30652142 23.67586928 12.56987769 19.70963307 11 15 C10.01 15 9.02 15 8 15 C7.63648438 14.20335937 7.63648438 14.20335937 7.265625 13.390625 C5.27084308 9.18623849 3.37620747 6.25562863 0 3 C0 2.01 0 1.02 0 0 Z " fill="#010932" transform="translate(256,182)"/>
<path d="M0 0 C-1.38780795 3.89006773 -3.2152227 6.96558708 -5.625 10.3125 C-6.25664062 11.19550781 -6.88828125 12.07851562 -7.5390625 12.98828125 C-8.02117187 13.65214844 -8.50328125 14.31601563 -9 15 C-11 13.1875 -11 13.1875 -13 11 C-13 8 -13 8 -12 5 C-11.34 5 -10.68 5 -10 5 C-9.67 6.32 -9.34 7.64 -9 9 C-8.34 9 -7.68 9 -7 9 C-6.5978125 7.6078125 -6.5978125 7.6078125 -6.1875 6.1875 C-3.88235294 0 -3.88235294 0 0 0 Z " fill="#DDF4FC" transform="translate(346,224)"/>
<path d="M0 0 C0.99 0.33 1.98 0.66 3 1 C3.144375 1.639375 3.28875 2.27875 3.4375 2.9375 C3.79081858 5.15511278 3.79081858 5.15511278 5.8125 6.125 C6.534375 6.41375 7.25625 6.7025 8 7 C10.1875 7.9375 10.1875 7.9375 12 9 C13.10868317 12.32604951 13.54177532 15.53058454 14 19 C8.37529046 13.90260698 2.41527481 7.24582444 0 0 Z " fill="#0E46D6" transform="translate(274,204)"/>
<path d="M0 0 C2.31 0 4.62 0 7 0 C7.70173653 4.38585329 8.10834375 8.55790643 8 13 C5.38929949 9.96821876 3.95864395 7.8345758 3 4 C2.01 3.67 1.02 3.34 0 3 C0 2.01 0 1.02 0 0 Z " fill="#F8FAF2" transform="translate(296,176)"/>
<path d="M0 0 C1.25541557 3.76624671 0.37061958 5.37188934 -1 9 C-1.99 9 -2.98 9 -4 9 C-4.2475 9.7425 -4.495 10.485 -4.75 11.25 C-6.09147301 14.20124062 -7.60905526 15.84814974 -10 18 C-10 13.99653659 -9.99477646 13.49294823 -7.8125 10.546875 C-7.36132812 9.928125 -6.91015625 9.309375 -6.4453125 8.671875 C-5.96835937 8.03765625 -5.49140625 7.4034375 -5 6.75 C-4.52304687 6.1003125 -4.04609375 5.450625 -3.5546875 4.78125 C-2.37822673 3.18126336 -1.19021231 1.58978359 0 0 Z " fill="#DBEFFC" transform="translate(414,183)"/>
<path d="M0 0 C3.64813364 3.5055778 6.76940717 7.1249963 9.8125 11.1875 C10.99779297 12.75564453 10.99779297 12.75564453 12.20703125 14.35546875 C14 17 14 17 14 19 C8.51541188 17.17180396 5.80055855 11.80095751 3 7 C2.34 6.34 1.68 5.68 1 5 C0.375 2.375 0.375 2.375 0 0 Z " fill="#D6EDFC" transform="translate(282,217)"/>
<path d="M0 0 C2.38672669 2.96283313 4.7353371 5.94270509 7 9 C6.67 9.66 6.34 10.32 6 11 C5.34 11 4.68 11 4 11 C3.67 11.66 3.34 12.32 3 13 C1.68 12.67 0.36 12.34 -1 12 C-0.67 8.04 -0.34 4.08 0 0 Z " fill="#0B4DDE" transform="translate(307,195)"/>
<path d="M0 0 C0.66 0.33 1.32 0.66 2 1 C-2.79352851 8.34745763 -2.79352851 8.34745763 -7 10 C-7.33 10.66 -7.66 11.32 -8 12 C-8.99 12 -9.98 12 -11 12 C-10.67 11.01 -10.34 10.02 -10 9 C-9.34 9 -8.68 9 -8 9 C-7.690625 8.05125 -7.38125 7.1025 -7.0625 6.125 C-6 3 -6 3 -5 1 C-4.34 1 -3.68 1 -3 1 C-3 1.99 -3 2.98 -3 4 C-2.67 3.01 -2.34 2.02 -2 1 C-1.34 0.67 -0.68 0.34 0 0 Z " fill="#EBF7F9" transform="translate(286,288)"/>
<path d="M0 0 C0.33 0.66 0.66 1.32 1 2 C-1.34375 8.5625 -1.34375 8.5625 -5 11 C-7.5625 10.8125 -7.5625 10.8125 -10 10 C-12 7 -12 7 -11.625 4.8125 C-11.41875 4.214375 -11.2125 3.61625 -11 3 C-9.02 5.97 -9.02 5.97 -7 9 C-4.61327331 6.03716687 -2.2646629 3.05729491 0 0 Z " fill="#184FC6" transform="translate(343,229)"/>
<path d="M0 0 C1.32 0.33 2.64 0.66 4 1 C0.31121019 6.97435122 -3.31943923 12.75209853 -8 18 C-8 14.89448334 -7.4606285 13.64738916 -6 11 C-5.34 11 -4.68 11 -4 11 C-4 9.02 -4 7.04 -4 5 C-2.68 4.67 -1.36 4.34 0 4 C0 2.68 0 1.36 0 0 Z " fill="#164AC4" transform="translate(384,219)"/>
<path d="M0 0 C0.66 0 1.32 0 2 0 C0.52869627 4.3573226 -1.83080615 7.71934134 -4.625 11.3125 C-5.04523438 11.86228516 -5.46546875 12.41207031 -5.8984375 12.97851562 C-6.92720039 14.32292168 -7.9629009 15.66201413 -9 17 C-9.66 15.68 -10.32 14.36 -11 13 C-10.0409375 12.5978125 -10.0409375 12.5978125 -9.0625 12.1875 C-6.66868314 11.11332248 -6.66868314 11.11332248 -6 8 C-5.34 8 -4.68 8 -4 8 C-3.896875 7.4225 -3.79375 6.845 -3.6875 6.25 C-2.89103535 3.64338842 -1.80934723 2.0264689 0 0 Z " fill="#164ABF" transform="translate(406,191)"/>
<path d="M0 0 C0.33 0.66 0.66 1.32 1 2 C0.2884375 3.175625 0.2884375 3.175625 -0.4375 4.375 C-2.34098924 7.06372236 -2.34098924 7.06372236 -2 11 C-4.375 12.8125 -4.375 12.8125 -7 14 C-7.66 13.67 -8.32 13.34 -9 13 C-6.03 8.71 -3.06 4.42 0 0 Z " fill="#D9EEFC" transform="translate(308,316)"/>
<path d="M0 0 C2.96404505 2.80804268 5.44499019 5.18315774 7 9 C5.35 11.31 3.7 13.62 2 16 C1.34 14.68 0.68 13.36 0 12 C0.99 11.01 1.98 10.02 3 9 C2.690625 8.2575 2.38125 7.515 2.0625 6.75 C1.1905075 4.49307824 0.52332993 2.3549847 0 0 Z " fill="#D5EEFD" transform="translate(305,248)"/>
<path d="M0 0 C0.99 0.33 1.98 0.66 3 1 C-1.95 7.435 -1.95 7.435 -7 14 C-7.33 12.68 -7.66 11.36 -8 10 C-6.25 8.0625 -6.25 8.0625 -4 6 C-2.96642853 4.35394174 -1.95939668 2.69036558 -1 1 C-0.67 0.67 -0.34 0.34 0 0 Z " fill="#DBF0FD" transform="translate(266,314)"/>
<path d="M0 0 C4.85110358 4.41009417 8.348107 9.58004353 12 15 C11.67 15.66 11.34 16.32 11 17 C10.7525 16.38125 10.505 15.7625 10.25 15.125 C9.19340037 12.8641028 9.19340037 12.8641028 7.05859375 12.11328125 C4.54157502 10.75208516 3.98640851 9.63551581 2.8125 7.0625 C2.48894531 6.37285156 2.16539062 5.68320312 1.83203125 4.97265625 C1.14553292 3.34504283 0.55860589 1.67581767 0 0 Z " fill="#1A50B8" transform="translate(390,296)"/>
<path d="M0 0 C4.23269578 1.51167706 5.66268097 4.30552799 8 8 C8.5775 8.515625 9.155 9.03125 9.75 9.5625 C11 11 11 11 11.1875 13.6875 C11.125625 14.450625 11.06375 15.21375 11 16 C8.21006583 13.47536632 6.36499687 10.61726096 4.375 7.4375 C3.76398438 6.46683594 3.15296875 5.49617187 2.5234375 4.49609375 C1 2 1 2 0 0 Z " fill="#D0EBFC" transform="translate(321,216)"/>
<path d="M0 0 C0.33 0.66 0.66 1.32 1 2 C0.360625 2.9075 -0.27875 3.815 -0.9375 4.75 C-3.05744093 7.69036168 -3.05744093 7.69036168 -3.5 10.1875 C-4.216946 12.78642926 -5.79853935 13.57970281 -8 15 C-8.66 14.67 -9.32 14.34 -10 14 C-6.7 9.38 -3.4 4.76 0 0 Z " fill="#DDF0FC" transform="translate(402,200)"/>
<path d="M0 0 C3.04640463 2.86720436 5.78043089 5.83935407 8.375 9.125 C8.89835937 9.78757812 9.42171875 10.45015625 9.9609375 11.1328125 C10.30382812 11.74898438 10.64671875 12.36515625 11 13 C10.67 13.99 10.34 14.98 10 16 C9.38125 15.030625 8.7625 14.06125 8.125 13.0625 C6.34321154 9.97164638 6.34321154 9.97164638 4 9 C4 8.01 4 7.02 4 6 C2.68 5.34 1.36 4.68 0 4 C0 2.68 0 1.36 0 0 Z " fill="#1448BD" transform="translate(402,313)"/>
<path d="M0 0 C1 2 1 2 0.25 4.3125 C-3.45374878 12.27555988 -3.45374878 12.27555988 -8 14 C-6.6744419 10.37723685 -5.05653045 7.36494652 -2.875 4.1875 C-2.33617187 3.39730469 -1.79734375 2.60710937 -1.2421875 1.79296875 C-0.83226562 1.20128906 -0.42234375 0.60960937 0 0 Z " fill="#D4EAFC" transform="translate(321,296)"/>
<path d="M0 0 C0.99 0 1.98 0 3 0 C4.01866229 1.65532623 5.01810813 3.32260138 6 5 C6.99 5.33 7.98 5.66 9 6 C9 7.65 9 9.3 9 11 C9.66 11 10.32 11 11 11 C10.67 11.99 10.34 12.98 10 14 C8.33041937 11.85637773 6.66423643 9.71026458 5 7.5625 C4.52304687 6.95083984 4.04609375 6.33917969 3.5546875 5.70898438 C0 1.11328125 0 1.11328125 0 0 Z " fill="#1649C6" transform="translate(288,224)"/>
<path d="M0 0 C2.75 0.5 2.75 0.5 6 2 C7.70000868 4.52425531 8.88320612 7.17516841 10 10 C9.01 10.495 9.01 10.495 8 11 C7.67 9.35 7.34 7.7 7 6 C6.01 5.67 5.02 5.34 4 5 C2.3125 3.4375 2.3125 3.4375 1 2 C1 2.66 1 3.32 1 4 C0.34 4 -0.32 4 -1 4 C-0.67 2.68 -0.34 1.36 0 0 Z " fill="#104DD6" transform="translate(321,222)"/>
<path d="M0 0 C0.33 0.66 0.66 1.32 1 2 C0.1796875 4.3125 0.1796875 4.3125 -1.125 7 C-1.54007812 7.886875 -1.95515625 8.77375 -2.3828125 9.6875 C-4.30945909 12.44251155 -5.8250977 13.05928821 -9 14 C-7.87540329 12.22891052 -6.75030797 10.45813764 -5.625 8.6875 C-4.99851562 7.70136719 -4.37203125 6.71523437 -3.7265625 5.69921875 C-2.50348387 3.78712071 -1.2590644 1.8885966 0 0 Z " fill="#174FC1" transform="translate(360,203)"/>
<path d="M0 0 C3.21880117 3.7935871 5.6163187 7.65829477 8 12 C3.38834951 10.54368932 3.38834951 10.54368932 1.75 8.25 C0.84170755 5.52512264 0.38758769 2.84230974 0 0 Z " fill="#E0F1FD" transform="translate(352,298)"/>
<path d="M0 0 C2.375 0.6875 2.375 0.6875 5 2 C6.1875 4.5625 6.1875 4.5625 7 7 C7.66 7.33 8.32 7.66 9 8 C9.33 8.99 9.66 9.98 10 11 C10.66 11.66 11.32 12.32 12 13 C11.01 13 10.02 13 9 13 C7.29928977 11.05255461 5.80452995 9.15895676 4.3125 7.0625 C3.89677734 6.49853516 3.48105469 5.93457031 3.05273438 5.35351562 C0 1.16791102 0 1.16791102 0 0 Z " fill="#D4EDFD" transform="translate(379,280)"/>
<path d="M0 0 C2.97 0.99 5.94 1.98 9 3 C8.67 5.31 8.34 7.62 8 10 C4.71211176 6.88983545 2.16264012 3.98381075 0 0 Z " fill="#134BCF" transform="translate(299,239)"/>
<path d="M0 0 C2.31 0.66 4.62 1.32 7 2 C7 4.64 7 7.28 7 10 C3.66442368 7.0094833 1.84916079 4.06815373 0 0 Z " fill="#DDEFFA" transform="translate(305,191)"/>
<path d="M0 0 C3.54965477 1.43676503 5.07087942 3.11301898 7.125 6.3125 C7.62257813 7.07175781 8.12015625 7.83101562 8.6328125 8.61328125 C10.00896001 11.01564162 11.03652344 13.40778925 12 16 C7.1693267 11.60847882 3.52339133 6.48308737 0 1 C0 0.67 0 0.34 0 0 Z " fill="#1D4CC0" transform="translate(262,188)"/>
<path d="M0 0 C2.375 0.6875 2.375 0.6875 5 2 C6.3125 4.625 6.3125 4.625 7 7 C5.00045254 7.04254356 2.99958364 7.04080783 1 7 C0 6 0 6 -0.0625 2.9375 C-0.041875 1.968125 -0.02125 0.99875 0 0 Z " fill="#F6FBF7" transform="translate(352,305)"/>
<path d="M0 0 C1.8125 0.5625 1.8125 0.5625 4 2 C5.06652192 4.30368736 6.06421005 6.64018187 7 9 C7.5775 9.7425 8.155 10.485 8.75 11.25 C9.1625 11.8275 9.575 12.405 10 13 C9.67 13.99 9.34 14.98 9 16 C7.49445366 13.71180854 5.99542957 11.41978831 4.5 9.125 C4.07074219 8.47402344 3.64148438 7.82304687 3.19921875 7.15234375 C0 2.2265625 0 2.2265625 0 0 Z " fill="#1E4EB8" transform="translate(352,296)"/>
<path d="M0 0 C0.99 0.33 1.98 0.66 3 1 C3 1.66 3 2.32 3 3 C3.66 3 4.32 3 5 3 C5 3.99 5 4.98 5 6 C5.66 6 6.32 6 7 6 C7.103125 6.639375 7.20625 7.27875 7.3125 7.9375 C7.539375 8.618125 7.76625 9.29875 8 10 C8.99 10.33 9.98 10.66 11 11 C10.01 12.485 10.01 12.485 9 14 C7.49717827 11.85609361 5.99764203 9.71001973 4.5 7.5625 C4.07074219 6.95083984 3.64148438 6.33917969 3.19921875 5.70898438 C0 1.11328125 0 1.11328125 0 0 Z " fill="#1647C3" transform="translate(340,279)"/>
<path d="M0 0 C1.33332095 2.6666419 0.67102033 4.16680303 0 7 C-0.639375 7.103125 -1.27875 7.20625 -1.9375 7.3125 C-2.618125 7.539375 -3.29875 7.76625 -4 8 C-4.33 8.99 -4.66 9.98 -5 11 C-5.66 11 -6.32 11 -7 11 C-5.22054913 6.95579349 -2.60470327 3.53921513 0 0 Z " fill="#DBF1FD" transform="translate(372,242)"/>
<path d="M0 0 C3.25524265 3.02272532 5.61820737 6.25718301 8 10 C7.67 10.66 7.34 11.32 7 12 C5.5 10.625 5.5 10.625 4 9 C4 8.34 4 7.68 4 7 C3.360625 6.7525 2.72125 6.505 2.0625 6.25 C0 5 0 5 -0.8125 2.9375 C-0.874375 2.298125 -0.93625 1.65875 -1 1 C-0.67 0.67 -0.34 0.34 0 0 Z " fill="#1950BF" transform="translate(299,183)"/>
<path d="M0 0 C1.98 0.99 1.98 0.99 4 2 C4 2.66 4 3.32 4 4 C4.66 4 5.32 4 6 4 C7.32 6.31 8.64 8.62 10 11 C9.34 11.66 8.68 12.32 8 13 C6.66388095 11.0226631 5.33100742 9.04327287 4 7.0625 C3.6184375 6.49853516 3.236875 5.93457031 2.84375 5.35351562 C0 1.11328125 0 1.11328125 0 0 Z " fill="#D7EEFC" transform="translate(312,202)"/>
<path d="M0 0 C0.99 0 1.98 0 3 0 C3.45375 0.928125 3.9075 1.85625 4.375 2.8125 C5.9421633 6.03921389 5.9421633 6.03921389 8 9 C7.67 9.99 7.34 10.98 7 12 C5.82767315 10.3790787 4.6622923 8.75313167 3.5 7.125 C2.8503125 6.22007812 2.200625 5.31515625 1.53125 4.3828125 C0 2 0 2 0 0 Z " fill="#D0ECFC" transform="translate(401,309)"/>
<path d="M0 0 C1.875 0.25 1.875 0.25 4 1 C5 2.75 5 2.75 6 5 C6.721875 5.845625 7.44375 6.69125 8.1875 7.5625 C9.0846875 8.7690625 9.0846875 8.7690625 10 10 C9.67 10.99 9.34 11.98 9 13 C7.49710267 11.02297434 5.99758658 9.0435417 4.5 7.0625 C4.07074219 6.49853516 3.64148438 5.93457031 3.19921875 5.35351562 C0 1.11328125 0 1.11328125 0 0 Z " fill="#D5EEFD" transform="translate(369,266)"/>
<path d="M0 0 C2.3125 0.125 2.3125 0.125 5 1 C6.8125 4.0625 6.8125 4.0625 8 7 C7.01 6.67 6.02 6.34 5 6 C5 5.34 5 4.68 5 4 C2.03 3.505 2.03 3.505 -1 3 C-0.67 2.01 -0.34 1.02 0 0 Z " fill="#144FDB" transform="translate(372,275)"/>
<path d="M0 0 C3.9252025 3.70090521 6.94580156 7.54959656 10 12 C9.67 12.66 9.34 13.32 9 14 C4.72302867 10.15072581 1.90336286 5.39286143 0 0 Z " fill="#021044" transform="translate(266,195)"/>
<path d="M0 0 C3.08089673 2.77280706 4.68775452 5.06326356 6 9 C4.35 8.67 2.7 8.34 1 8 C0.67 5.36 0.34 2.72 0 0 Z " fill="#CEE9F9" transform="translate(367,321)"/>
<path d="M0 0 C-1.3697164 3.99500618 -3.25722422 6.80009492 -6 10 C-6 7.69 -6 5.38 -6 3 C-5.34 3 -4.68 3 -4 3 C-4 2.34 -4 1.68 -4 1 C-2 0 -2 0 0 0 Z " fill="#D8EEF9" transform="translate(374,181)"/>
<path d="M0 0 C-0.33 2.31 -0.66 4.62 -1 7 C-1.33 6.34 -1.66 5.68 -2 5 C-3.97888961 4.27306096 -5.97954558 3.60183749 -8 3 C-4.93882432 0.37613513 -4.26826873 0 0 0 Z " fill="#F5F8F8" transform="translate(417,176)"/>
<path d="M0 0 C0.66 0.33 1.32 0.66 2 1 C0.6062718 5.43458973 -1.60582235 7.87378374 -5 11 C-4.34 8.03 -3.68 5.06 -3 2 C-2.01 2.33 -1.02 2.66 0 3 C0 2.01 0 1.02 0 0 Z " fill="#1B4EC2" transform="translate(394,207)"/>
<path d="M0 0 C1.65 0.33 3.3 0.66 5 1 C4.01 3.64 3.02 6.28 2 9 C1.67 7.68 1.34 6.36 1 5 C0.34 4.01 -0.32 3.02 -1 2 C-0.67 1.34 -0.34 0.68 0 0 Z " fill="#0A4DE6" transform="translate(308,305)"/>
<path d="M0 0 C0 3.41321235 -0.66867466 4.39472885 -2.5 7.1875 C-2.9640625 7.90292969 -3.428125 8.61835938 -3.90625 9.35546875 C-4.2671875 9.89816406 -4.628125 10.44085938 -5 11 C-5.33 10.34 -5.66 9.68 -6 9 C-3.65625 2.4375 -3.65625 2.4375 0 0 Z " fill="#144ABC" transform="translate(317,300)"/>
<path d="M0 0 C1.98 0.66 3.96 1.32 6 2 C6.125 7.75 6.125 7.75 5 10 C4.34 10 3.68 10 3 10 C3.2475 9.46375 3.495 8.9275 3.75 8.375 C4.13553144 4.71245136 2.13181966 2.84242621 0 0 Z " fill="#1B50C9" transform="translate(307,250)"/>
<path d="M0 0 C1.32 0 2.64 0 4 0 C2.68775452 3.93673644 1.08089673 6.22719294 -2 9 C-1.41196203 5.97580475 -0.77321882 2.98241547 0 0 Z " fill="#1649BF" transform="translate(301,320)"/>
<path d="M0 0 C3.08089673 2.77280706 4.68775452 5.06326356 6 9 C5.01 9 4.02 9 3 9 C0.50022457 5.66696609 0 4.26696398 0 0 Z " fill="#D2E8FA" transform="translate(361,312)"/>
<path d="M0 0 C3.08089673 2.77280706 4.68775452 5.06326356 6 9 C3.36 7.02 0.72 5.04 -2 3 C-1.34 2.01 -0.68 1.02 0 0 Z " fill="#CBE3FA" transform="translate(346,289)"/>
<path d="M0 0 C0.99 0.33 1.98 0.66 3 1 C3.144375 1.639375 3.28875 2.27875 3.4375 2.9375 C3.80104993 5.20311706 3.80104993 5.20311706 6.0625 6.25 C6.701875 6.4975 7.34125 6.745 8 7 C7.01 8.485 7.01 8.485 6 10 C4.99723227 8.52270825 3.99785546 7.04311423 3 5.5625 C2.443125 4.73878906 1.88625 3.91507813 1.3125 3.06640625 C0 1 0 1 0 0 Z " fill="#1647C3" transform="translate(274,204)"/>
<path d="M0 0 C0.33 1.32 0.66 2.64 1 4 C1.66 4 2.32 4 3 4 C2.34 5.32 1.68 6.64 1 8 C0.34 7.67 -0.32 7.34 -1 7 C-0.67 6.34 -0.34 5.68 0 5 C-0.99 5.33 -1.98 5.66 -3 6 C-1.125 1.125 -1.125 1.125 0 0 Z " fill="#064AD9" transform="translate(364,197)"/>
<path d="M0 0 C0.66 0 1.32 0 2 0 C2 0.66 2 1.32 2 2 C2.99 2.33 3.98 2.66 5 3 C5.33 4.98 5.66 6.96 6 9 C2.91910327 6.22719294 1.31224548 3.93673644 0 0 Z " fill="#1045C1" transform="translate(367,319)"/>
<path d="M0 0 C3.33523252 1.38009621 5.18607951 2.84950652 7 6 C6.67 6.99 6.34 7.98 6 9 C3.59927045 6.11912454 1.52708963 3.43595166 0 0 Z " fill="#DEF4FC" transform="translate(390,294)"/>
<path d="M0 0 C0.66 0.99 1.32 1.98 2 3 C0.6875 5.5 0.6875 5.5 -1 8 C-1.99 8 -2.98 8 -4 8 C-3.67 6.68 -3.34 5.36 -3 4 C-2.34 4 -1.68 4 -1 4 C-0.67 2.68 -0.34 1.36 0 0 Z " fill="#F7FDEE" transform="translate(332,283)"/>
<path d="M0 0 C3.39417765 3.12621626 5.6062718 5.56541027 7 10 C6.01 9.34 5.02 8.68 4 8 C4 7.34 4 6.68 4 6 C3.01 5.67 2.02 5.34 1 5 C0.67 3.35 0.34 1.7 0 0 Z " fill="#1047BB" transform="translate(368,266)"/>
<path d="M0 0 C3.3 0 6.6 0 10 0 C10 0.33 10 0.66 10 1 C8.02 1 6.04 1 4 1 C4 2.32 4 3.64 4 5 C3.34 5 2.68 5 2 5 C1.34 3.35 0.68 1.7 0 0 Z " fill="#0E4EEA" transform="translate(260,183)"/>
<path d="M0 0 C0.66 0 1.32 0 2 0 C1.34 1.98 0.68 3.96 0 6 C-1.32 5.67 -2.64 5.34 -4 5 C-2.71937515 3.2925002 -1.38232443 1.62626404 0 0 Z " fill="#1A53CF" transform="translate(273,308)"/>
<path d="M0 0 C4.875 4.75 4.875 4.75 6 7 C4.35 6.67 2.7 6.34 1 6 C0.67 4.02 0.34 2.04 0 0 Z " fill="#134DC9" transform="translate(384,288)"/>
<path d="M0 0 C0.99 0.33 1.98 0.66 3 1 C2.34 1 1.68 1 1 1 C0.34 2.98 -0.32 4.96 -1 7 C-1.99 7 -2.98 7 -4 7 C-2.92598892 4.08482708 -2.22189824 2.22189824 0 0 Z " fill="#D6EAF8" transform="translate(377,235)"/>
<path d="M0 0 C2.475 0.495 2.475 0.495 5 1 C3.68 3.31 2.36 5.62 1 8 C0.17361624 5.10765685 0 3.11257569 0 0 Z " fill="#D2E7FA" transform="translate(346,216)"/>
<path d="M0 0 C1.65 1.65 3.3 3.3 5 5 C4.67 5.99 4.34 6.98 4 8 C3.01 7.67 2.02 7.34 1 7 C0.67 4.69 0.34 2.38 0 0 Z " fill="#D9EEFA" transform="translate(277,210)"/>
<path d="M0 0 C0.66 0.33 1.32 0.66 2 1 C0.35 3.64 -1.3 6.28 -3 9 C-3.66 8.34 -4.32 7.68 -5 7 C-3.35 4.69 -1.7 2.38 0 0 Z " fill="#CDE7FC" transform="translate(362,197)"/>
<path d="M0 0 C0.99 0 1.98 0 3 0 C1.8141763 3.37503669 0.72426311 5.64722731 -2 8 C-2 6.35 -2 4.7 -2 3 C-1.34 3 -0.68 3 0 3 C0 2.01 0 1.02 0 0 Z " fill="#0C50EB" transform="translate(409,183)"/>
<path d="M0 0 C3.63 0 7.26 0 11 0 C11 0.33 11 0.66 11 1 C10.39671875 1.04898438 9.7934375 1.09796875 9.171875 1.1484375 C7.97304688 1.26058594 7.97304688 1.26058594 6.75 1.375 C5.56664062 1.47941406 5.56664062 1.47941406 4.359375 1.5859375 C1.914123 2.01507113 0.15163097 2.78600638 -2 4 C-1.34 2.68 -0.68 1.36 0 0 Z " fill="#0B42B5" transform="translate(374,182)"/>
<path d="M0 0 C2.475 0.495 2.475 0.495 5 1 C5 2.98 5 4.96 5 7 C1.125 2.25 1.125 2.25 0 0 Z " fill="#D3EFFA" transform="translate(299,182)"/>
<path d="M0 0 C0.33 0.99 0.66 1.98 1 3 C-0.4375 5.1875 -0.4375 5.1875 -2 7 C-2.66 6.67 -3.32 6.34 -4 6 C-2.25 1.125 -2.25 1.125 0 0 Z " fill="#E3F7FB" transform="translate(272,306)"/>
<path d="M0 0 C0.33 0 0.66 0 1 0 C1 1.65 1 3.3 1 5 C-0.65 5.66 -2.3 6.32 -4 7 C-2.92598892 4.08482708 -2.22189824 2.22189824 0 0 Z " fill="#1046C7" transform="translate(309,260)"/>
<path d="M0 0 C0.33 0.66 0.66 1.32 1 2 C1.99 2.33 2.98 2.66 4 3 C3.67 4.32 3.34 5.64 3 7 C2.01 6.34 1.02 5.68 0 5 C-0.1875 2.375 -0.1875 2.375 0 0 Z " fill="#FCFCED" transform="translate(296,242)"/>
<path d="M0 0 C0.99 0.33 1.98 0.66 3 1 C2.34 2.32 1.68 3.64 1 5 C0.01 4.67 -0.98 4.34 -2 4 C-1.34 2.68 -0.68 1.36 0 0 Z " fill="#0055F0" transform="translate(325,231)"/>
<path d="M0 0 C0.66 0.33 1.32 0.66 2 1 C-0.475 4.465 -0.475 4.465 -3 8 C-3.33 7.01 -3.66 6.02 -4 5 C-2.0625 2.3125 -2.0625 2.3125 0 0 Z " fill="#D2ECFD" transform="translate(355,208)"/>
</svg>
